# xmcd CD database file
#
# Track frame offsets:
#	150
#	20315
#	43270
#	64385
#	82440
#	103145
#	113642
#	134135
#	151525
#	168687
#	186155
#
# Disc length: 2787 seconds
#
# Revision: 1
# Processed by: cddbd v1.5.1PL0 Copyright (c) Steve Scherf et al.
# Submitted via: CDex 1.51
#
DISCID=9e0ae10b
DTITLE=Various Artist - Gunsmith Cats - Image Album
DYEAR=1993
DGENRE=Anime
TTITLE0=Burst
TTITLE1=Saturday Night Special
TTITLE2=Bounty Hunter
TTITLE3=Lullaby
TTITLE4=natsukashisa dakenara
TTITLE5=CHINA TOWN shibyoukan no yoru
TTITLE6=Hard Touch
TTITLE7=Groove from Heaven
TTITLE8=Rally Angel
TTITLE9=Shelby GT 500
TTITLE10=Sunset in my Heart
EXTD=YEAR: 1993
EXTT0=
EXTT1=
EXTT2=
EXTT3=
EXTT4=
EXTT5=
EXTT6=
EXTT7=
EXTT8=
EXTT9=
EXTT10=
PLAYORDER=
